<svg width="176" height="35" viewBox="0 0 176 35" fill="none" xmlns="http://www.w3.org/2000/svg"><path d="M3.00807 27.9243C3.41164 27.9243 3.77173 27.9836 4.08837 28.1019c.32285.112199999999998.5712.2742.74503.4861.18005.2056.27008.442299999999999.27008.7103C5.10348 29.616 5.00726 29.8778 4.81477 30.0834 4.62853 30.2889 4.3926 30.3918 4.107 30.3918 3.97662 30.3918 3.91142 30.3544 3.91142 30.2797 3.91142 30.2609 3.93626 30.208 3.98593 30.1207 4.0418 30.0335 4.08837 29.9369 4.12563 29.831 4.16909 29.7188 4.19081 29.5848 4.19081 29.4291 4.19081 29.1363 4.08216 28.8995 3.86486 28.7188 3.64756 28.5381 3.36197 28.4478 3.00807 28.4478c-.45943.0-.83506.1432-1.12686.4299C1.5894 29.1643 1.37831 29.5319 1.24793 29.9805s-.19557.9284-.19557 1.4394C1.05236 31.9432 1.13307 32.42 1.2945 32.8499 1.46213 33.2798 1.69805 33.6225 2.00227 33.878 2.30651 34.1273 2.6604 34.2518 3.06395 34.2518 3.4613 34.2518 3.80588 34.1802 4.09768 34.0368 4.38949 33.8874 4.62853 33.6786 4.81477 33.4106 4.8334 33.3857 4.85513 33.3732 4.87997 33.3732 4.93585 33.3732 4.99794 33.4044 5.06623 33.4667 5.14073 33.5228 5.17798 33.5789 5.17798 33.6349 5.17798 33.6537 5.16867 33.6786 5.15004 33.7098 4.61611 34.501 3.8928 34.8967 2.98013 34.8967 2.33445 34.8967 1.78808 34.7441 1.34105 34.4387.894038 34.1335.558773 33.719.335265 33.1957.111755 32.6661.0 32.0741.0 31.4199.0 30.7594.111755 30.1675.335265 29.6441.558773 29.1144.894038 28.6969 1.34105 28.3917 1.79429 28.0801 2.34996 27.9243 3.00807 27.9243zM6.12034 32.448c0-.4985.09002-.9316.270070000000001-1.2992.18624-.3675.45012-.651100000000003.79157-.8505C7.52969 30.0989 7.93327 29.9992 8.39266 29.9992 8.85212 29.9992 9.25258 30.0989 9.59404 30.2983 9.93556 30.4977 10.1994 30.7813 10.3856 31.1488 10.5719 31.5164 10.665 31.9495 10.665 32.448 10.665 32.9402 10.5719 33.3733 10.3856 33.7471 10.1994 34.1147 9.93556 34.3983 9.59404 34.5977 9.25258 34.797 8.85212 34.8967 8.39266 34.8967 7.93327 34.8967 7.52969 34.797 7.18198 34.5977 6.84053 34.3983 6.57665 34.1147 6.39041 33.7471 6.21036 33.3733 6.12034 32.9402 6.12034 32.448zM9.68716 32.476C9.68716 32.1831 9.64685 31.8841 9.5661 31.5787 9.4854 31.2735 9.34883 31.0148 9.15633 30.803 8.97007 30.5911 8.72487 30.4852 8.4206 30.4852 8.15984 30.4852 7.92702 30.5694 7.72214 30.7376 7.52351 30.8996 7.36825 31.1301 7.25649 31.4292 7.14473 31.7283 7.08886 32.071 7.08886 32.4574 7.08886 33.0493 7.20374 33.5197 7.43343 33.8686 7.6632 34.2176 7.97358 34.392 8.36473 34.392 8.6193 34.392 8.84593 34.3142 9.04457 34.1583 9.24945 33.9963 9.40777 33.7721 9.51953 33.4855 9.63128 33.1926 9.68716 32.8561 9.68716 32.476zM13.2645 33.2704C13.2645 33.5634 13.2863 33.7969 13.3297 33.9715 13.3731 34.1459 13.4508 34.3142 13.5626 34.4761L13.6743 34.6257 13.5626 34.7659H11.9327L11.8303 34.4761 12.0259 34.4294C12.1811 34.392 12.2835 34.3266 12.3333 34.2331 12.3892 34.1335 12.417 33.9651 12.417 33.7284V31.1021C12.417 31.0274 12.4016 30.9744 12.3705 30.9432 12.3457 30.9121 12.2991 30.8965 12.2308 30.8965H11.821L11.7372 30.6535C11.9173 30.4915 12.1222 30.3575 12.3519 30.2516 12.5879 30.1457 12.7926 30.0927 12.9665 30.0927 13.0534 30.0927 13.1249 30.1207 13.1808 30.1768 13.2365 30.2329 13.2645 30.3045 13.2645 30.3918v1.0001C13.426 30.9806 13.6619 30.6472 13.9724 30.3918 14.2828 30.1301 14.6087 29.9992 14.9501 29.9992 15.3289 29.9992 15.6145 30.1113 15.807 30.3357 15.9995 30.56 16.1111 30.9121 16.1423 31.3919 16.3037 30.9806 16.5395 30.6472 16.85 30.3918 17.1604 30.1301 17.4864 29.9992 17.8279 29.9992 18.2439 29.9992 18.5449 30.1331 18.7312 30.4011 18.9237 30.669 19.0199 31.0959 19.0199 31.6816v2.2618C19.0199 34.1553 19.113 34.2611 19.2993 34.2611 19.4421 34.2611 19.5973 34.1958 19.765 34.0649L19.9419 34.3079C19.7804 34.4886 19.6066 34.632 19.4204 34.7378 19.2341 34.8438 19.0603 34.8967 18.8989 34.8967 18.6443 34.8967 18.4612 34.8188 18.3494 34.663 18.2376 34.5073 18.1818 34.2549 18.1818 33.906V31.6816C18.1818 31.046 17.952 30.7282 17.4926 30.7282 17.2318 30.7282 17.0022 30.831 16.8035 31.0367 16.6048 31.2361 16.4464 31.5196 16.3285 31.8871 16.2106 32.2548 16.1484 32.6785 16.1423 33.1583V33.2704C16.1423 33.5944 16.167 33.853 16.2168 34.0462 16.2726 34.2331 16.3843 34.4263 16.5519 34.6257L16.4402 34.7659H15.304V31.6816C15.304 31.046 15.0744 30.7282 14.6149 30.7282 14.348 30.7282 14.112 30.8342 13.9071 31.046 13.7084 31.2579 13.5501 31.5569 13.4322 31.9432 13.3204 32.3296 13.2645 32.772 13.2645 33.2704zm9.0466.0C22.3111 33.5634 22.3328 33.7969 22.3764 33.9715 22.4198 34.1459 22.4974 34.3142 22.6092 34.4761L22.7209 34.6257 22.6092 34.7659H20.9795L20.877 34.4761 21.0726 34.4294C21.2277 34.392 21.3302 34.3266 21.3799 34.2331 21.4358 34.1335 21.4636 33.9651 21.4636 33.7284V31.1021C21.4636 31.0274 21.4481 30.9744 21.4171 30.9432 21.3922 30.9121 21.3457 30.8965 21.2774 30.8965H20.8677L20.7838 30.6535C20.9639 30.4915 21.1688 30.3575 21.3985 30.2516 21.6343 30.1457 21.8392 30.0927 22.0131 30.0927 22.1 30.0927 22.1715 30.1207 22.2274 30.1768 22.2832 30.2329 22.3111 30.3045 22.3111 30.3918v1.0001C22.4726 30.9806 22.7085 30.6472 23.019 30.3918 23.3293 30.1301 23.6553 29.9992 23.9968 29.9992 24.3755 29.9992 24.6611 30.1113 24.8536 30.3357 25.0461 30.56 25.1578 30.9121 25.1889 31.3919 25.3502 30.9806 25.5862 30.6472 25.8967 30.3918 26.207 30.1301 26.533 29.9992 26.8745 29.9992 27.2905 29.9992 27.5915 30.1331 27.7778 30.4011 27.9703 30.669 28.0666 31.0959 28.0666 31.6816v2.2618C28.0666 34.1553 28.1597 34.2611 28.3459 34.2611 28.4887 34.2611 28.6439 34.1958 28.8116 34.0649L28.9886 34.3079C28.827 34.4886 28.6533 34.632 28.467 34.7378 28.2807 34.8438 28.1069 34.8967 27.9455 34.8967 27.6909 34.8967 27.5078 34.8188 27.396 34.663 27.2842 34.5073 27.2284 34.2549 27.2284 33.906V31.6816C27.2284 31.046 26.9986 30.7282 26.5393 30.7282 26.2785 30.7282 26.0488 30.831 25.8501 31.0367 25.6514 31.2361 25.4931 31.5196 25.3751 31.8871 25.2572 32.2548 25.1951 32.6785 25.1889 33.1583V33.2704C25.1889 33.5944 25.2137 33.853 25.2634 34.0462 25.3193 34.2331 25.431 34.4263 25.5987 34.6257L25.4869 34.7659H24.3506V31.6816C24.3506 31.046 24.1209 30.7282 23.6615 30.7282 23.3946 30.7282 23.1586 30.8342 22.9537 31.046 22.755 31.2579 22.5967 31.5569 22.4788 31.9432 22.367 32.3296 22.3111 32.772 22.3111 33.2704zm8.0036-4.6544C30.3147 28.4976 30.38 28.3667 30.5104 28.2235 30.6469 28.0739 30.7711 27.9991 30.8828 27.9991 31.0008 27.9991 31.128 28.0707 31.2647 28.2141 31.4012 28.3573 31.4696 28.4913 31.4696 28.616 31.4696 28.7344 31.4012 28.8652 31.2647 29.0085 31.128 29.1518 31.0008 29.2235 30.8828 29.2235 30.7772 29.2235 30.6562 29.1518 30.5196 29.0085 30.383 28.8652 30.3147 28.7344 30.3147 28.616zM31.302 33.9434C31.302 34.1553 31.3951 34.2611 31.5813 34.2611 31.7365 34.2611 31.8917 34.1958 32.0469 34.0649L32.224 34.3079C32.0624 34.4886 31.8887 34.632 31.7024 34.7378 31.5161 34.8438 31.3423 34.8967 31.1808 34.8967 30.9263 34.8967 30.7431 34.8188 30.6314 34.663 30.5196 34.5073 30.4637 34.2549 30.4637 33.906V31.0086C30.4637 30.9339 30.4482 30.8809 30.4172 30.8498 30.3923 30.8186 30.3458 30.803 30.2775 30.803H29.8678L29.7839 30.56C29.964 30.398 30.1689 30.2641 30.3986 30.1581 30.6282 30.0522 30.8331 29.9992 31.0132 29.9992 31.1001 29.9992 31.1716 30.0272 31.2275 30.0834 31.2833 30.1395 31.3112 30.211 31.3112 30.2983L31.302 33.9434zm4.3166-3.8227C35.6186 30.2516 35.6 30.37 35.5627 30.4759 35.5256 30.5818 35.4728 30.6597 35.4045 30.7096H34.408V33.719C34.408 33.9122 34.436 34.0494 34.4918 34.1303 34.5477 34.2114 34.6377 34.2518 34.7619 34.2518 34.9482 34.2518 35.1593 34.1521 35.3952 33.9527L35.5721 34.1958C35.4107 34.4077 35.2182 34.5789 34.9947 34.7098 34.7711 34.8344 34.5601 34.8967 34.3615 34.8967 34.1069 34.8967 33.9082 34.8188 33.7654 34.663 33.6288 34.501 33.5605 34.2799 33.5605 33.9995V30.7096H32.741C32.741 30.5414 32.7534 30.4323 32.7783 30.3824 32.8031 30.3326 32.8652 30.2952 32.9645 30.2703 33.2936 30.183 33.5264 30.0428 33.663 29.8497 33.8058 29.6503 33.9082 29.3948 33.9703 29.0832 33.9889 28.9836 34.02 28.9212 34.0634 28.8964 34.1131 28.8715 34.2279 28.8589 34.408 28.8589v1.2618h1.2106zm3.4535.0C39.0721 30.2516 39.0535 30.37 39.0162 30.4759 38.979 30.5818 38.9261 30.6597 38.8579 30.7096H37.8614V33.719C37.8614 33.9122 37.8893 34.0494 37.9452 34.1303 38.0011 34.2114 38.0911 34.2518 38.2154 34.2518 38.4015 34.2518 38.6126 34.1521 38.8486 33.9527L39.0256 34.1958C38.864 34.4077 38.6717 34.5789 38.4481 34.7098 38.2246 34.8344 38.0135 34.8967 37.8148 34.8967 37.5602 34.8967 37.3616 34.8188 37.2189 34.663 37.0821 34.501 37.014 34.2799 37.014 33.9995V30.7096H36.1944C36.1944 30.5414 36.2068 30.4323 36.2316 30.3824 36.2565 30.3326 36.3185 30.2952 36.4179 30.2703 36.747 30.183 36.9798 30.0428 37.1164 29.8497 37.2592 29.6503 37.3616 29.3948 37.4238 29.0832 37.4424 28.9836 37.4733 28.9212 37.5169 28.8964 37.5665 28.8715 37.6814 28.8589 37.8614 28.8589v1.2618h1.2107zm4.8783 3.9442C43.7206 34.3328 43.4476 34.5385 43.1309 34.6818 42.8142 34.825 42.4727 34.8967 42.1064 34.8967 41.6781 34.8967 41.3024 34.797 40.9796 34.5977 40.6567 34.3983 40.4052 34.1179 40.2253 33.7565 40.0513 33.395 39.9645 32.9776 39.9645 32.5041 39.9645 32.0056 40.0637 31.5695 40.2625 31.1956 40.4611 30.8155 40.7405 30.5226 41.1007 30.317 41.4669 30.1051 41.8923 29.9992 42.3766 29.9992 42.7179 29.9992 43.0067 30.0646 43.2427 30.1955 43.4848 30.3201 43.6648 30.4883 43.7827 30.7002 43.9007 30.9058 43.9598 31.1301 43.9598 31.3731 43.9598 31.6348 43.8883 31.8871 43.7455 32.1302 43.6089 32.3733 43.4072 32.5726 43.1402 32.7284 42.8732 32.8779 42.5535 32.9527 42.1809 32.9527 41.9822 32.9527 41.7619 32.9152 41.5197 32.8405 41.2776 32.7658 41.1565 32.6567 41.1565 32.5134 41.1565 32.4636 41.169 32.4168 41.1938 32.3733 41.2248 32.3296 41.2589 32.3078 41.2962 32.3078 41.3148 32.3078 41.3769 32.3296 41.4825 32.3733 41.588 32.4106 41.7246 32.4292 41.8923 32.4292 42.2648 32.4292 42.5535 32.3234 42.7584 32.1115 42.9695 31.8997 43.075 31.6504 43.075 31.3638 43.075 31.1208 42.9974 30.9121 42.8421 30.7376 42.6869 30.5569 42.4697 30.4665 42.1903 30.4665 41.7929 30.4665 41.4825 30.6441 41.2589 30.9992 41.0355 31.3482 40.9238 31.8498 40.9238 32.5041 40.9238 33.0586 41.0416 33.4947 41.2776 33.8125 41.5135 34.1241 41.855 34.2799 42.302 34.2799 42.8483 34.2799 43.3016 34.1023 43.6617 33.7471 43.6866 33.7222 43.7144 33.7098 43.7455 33.7098 43.7952 33.7098 43.848 33.7409 43.9039 33.8031 43.9598 33.8593 43.9876 33.9185 43.9876 33.9808 43.9876 34.0119 43.9752 34.04 43.9504 34.0649zM49.3174 33.9434C49.3174 34.1366 49.4105 34.2331 49.5968 34.2331 49.752 34.2331 49.9072 34.177 50.0624 34.0649L50.2394 34.3079C50.0779 34.4886 49.9041 34.632 49.7178 34.7378 49.5315 34.8438 49.3609 34.8967 49.2056 34.8967 48.9512 34.8967 48.7679 34.8188 48.6562 34.663 48.5444 34.5073 48.4885 34.2549 48.4885 33.906 48.2341 34.2675 47.9733 34.5228 47.7062 34.6724c-.2669.1496-.555600000000005.2243-.866.2243C46.5422 34.8967 46.2659 34.8126 46.0113 34.6444 45.7568 34.4699 45.5519 34.2114 45.3966 33.8686 45.2476 33.5259 45.1731 33.1116 45.1731 32.6256 45.1731 32.0897 45.2694 31.6255 45.4618 31.2329 45.6605 30.8342 45.9399 30.5288 46.3 30.317 46.6663 30.1051 47.0948 29.9992 47.5852 29.9992 47.908 29.9992 48.2029 30.0398 48.4699 30.1207V28.4664C48.4699 28.3917 48.4544 28.3387 48.4234 28.3076 48.3986 28.2764 48.3519 28.2608 48.2836 28.2608H47.8738L47.7901 28.0178C47.9701 27.8558 48.175 27.7219 48.4048 27.6159 48.6407 27.51 48.8455 27.457 49.0194 27.457 49.1063 27.457 49.1777 27.485 49.2336 27.5411 49.2895 27.5972 49.3174 27.6688 49.3174 27.7561v6.1873zM46.151 32.448C46.151 33.0399 46.2503 33.4761 46.449 33.7565 46.6539 34.0368 46.9085 34.177 47.2126 34.177 47.4611 34.177 47.6939 34.1085 47.9111 33.9715 48.1284 33.8281 48.3209 33.6131 48.4885 33.3265V30.803C48.2029 30.6099 47.8988 30.5132 47.5759 30.5132 47.1227 30.5132 46.7719 30.6846 46.5235 31.0274 46.2752 31.3638 46.151 31.8374 46.151 32.448zm10.3271-2.3273C56.4781 30.2516 56.4595 30.37 56.4222 30.4759 56.385 30.5818 56.3323 30.6597 56.264 30.7096H55.2675V33.719C55.2675 33.9122 55.2954 34.0494 55.3512 34.1303 55.4071 34.2114 55.4972 34.2518 55.6214 34.2518 55.8077 34.2518 56.0187 34.1521 56.2546 33.9527L56.4316 34.1958C56.2702 34.4077 56.0777 34.5789 55.8542 34.7098 55.6306 34.8344 55.4197 34.8967 55.221 34.8967 54.9664 34.8967 54.7677 34.8188 54.6249 34.663 54.4883 34.501 54.42 34.2799 54.42 33.9995V30.7096H53.6005C53.6005 30.5414 53.6129 30.4323 53.6378 30.3824 53.6625 30.3326 53.7247 30.2952 53.8239 30.2703 54.153 30.183 54.3859 30.0428 54.5225 29.8497 54.6653 29.6503 54.7677 29.3948 54.8298 29.0832 54.8484 28.9836 54.8795 28.9212 54.9229 28.8964 54.9726 28.8715 55.0874 28.8589 55.2675 28.8589v1.2618h1.2106zM57.3705 32.448C57.3705 31.9495 57.4605 31.5164 57.6406 31.1488 57.8268 30.7813 58.0908 30.4977 58.4322 30.2983 58.7799 30.0989 59.1835 29.9992 59.6428 29.9992 60.1023 29.9992 60.5028 30.0989 60.8442 30.2983 61.1857 30.4977 61.4496 30.7813 61.6358 31.1488 61.8221 31.5164 61.9152 31.9495 61.9152 32.448 61.9152 32.9402 61.8221 33.3733 61.6358 33.7471 61.4496 34.1147 61.1857 34.3983 60.8442 34.5977 60.5028 34.797 60.1023 34.8967 59.6428 34.8967 59.1835 34.8967 58.7799 34.797 58.4322 34.5977 58.0908 34.3983 57.8268 34.1147 57.6406 33.7471 57.4605 33.3733 57.3705 32.9402 57.3705 32.448zM60.9374 32.476C60.9374 32.1831 60.8971 31.8841 60.8163 31.5787 60.7356 31.2735 60.599 31.0148 60.4065 30.803 60.2203 30.5911 59.9751 30.4852 59.6708 30.4852 59.41 30.4852 59.1773 30.5694 58.9724 30.7376 58.7737 30.8996 58.6184 31.1301 58.5067 31.4292 58.3949 31.7283 58.339 32.071 58.339 32.4574 58.339 33.0493 58.454 33.5197 58.6837 33.8686 58.9133 34.2176 59.2238 34.392 59.6149 34.392 59.8695 34.392 60.0961 34.3142 60.2948 34.1583 60.4997 33.9963 60.658 33.7721 60.7697 33.4855 60.8815 33.1926 60.9374 32.8561 60.9374 32.476zm6.6266 1.0468C67.564 33.7222 67.5792 33.8718 67.6105 33.9715 67.6411 34.0711 67.697 34.1397 67.7782 34.177 67.8646 34.2144 67.9924 34.2331 68.16 34.2331H69.1658C69.3894 34.2331 69.563 34.2114 69.6874 34.1677 69.8111 34.1179 69.9075 34.0368 69.9761 33.9247 70.0506 33.8063 70.1184 33.6319 70.181 33.4014L70.2368 33.1863 70.5534 33.2985V34.8967L70.3672 34.9996 70.2927 34.8967C70.2242 34.8096 70.0938 34.7659 69.9016 34.7659H65.9805L65.878 34.4667 66.0736 34.4107C66.3034 34.3422 66.4557 34.2549 66.5303 34.149 66.6048 34.043 66.642 33.8562 66.642 33.5882V29.9338C66.642 29.56 66.6107 29.2578 66.5489 29.0272 66.4863 28.7966 66.378 28.5786 66.2226 28.3729L66.1015 28.2047 66.2226 28.0551h2.8501C69.6062 28.0551 69.96 27.9898 70.1343 27.8589L70.302 27.7375 70.451 27.8589v1.6637L70.1343 29.6347 70.0785 29.4198C70.0159 29.1892 69.9481 29.0179 69.8736 28.9057 69.805 28.7874 69.7086 28.7063 69.5849 28.6627 69.4605 28.6128 69.2869 28.588 69.0633 28.588H68.16C67.9924 28.588 67.8646 28.6066 67.7782 28.644 67.697 28.6813 67.6411 28.7499 67.6105 28.8497 67.5792 28.9494 67.564 29.0988 67.564 29.2983v1.7944h1.1828C68.8958 31.0927 69.0261 31.0616 69.1378 30.9992 69.2556 30.9307 69.3707 30.8186 69.4825 30.6628L69.557 30.56 69.7432 30.6628V32.261L69.4266 32.3733 69.3707 32.1582C69.3148 31.9464 69.2151 31.8062 69.0727 31.7377 68.9356 31.6629 68.6969 31.6255 68.3556 31.6255H67.564v1.8973zm8.2633-2.7104C75.1194 31.5227 74.6445 32.0087 74.4023 32.2704l1.0338 1.7758C75.492 34.1459 75.5511 34.2144 75.613 34.2518 75.6755 34.2891 75.7468 34.3079 75.8273 34.3079 75.939 34.3079 76.0574 34.2675 76.1811 34.1864L76.386 34.4667C76.1192 34.7535 75.8305 34.8967 75.5199 34.8967 75.1042 34.8967 74.7722 34.6786 74.5235 34.2425L73.7691 32.9527C73.2229 33.5882 72.9495 33.9963 72.9495 34.177 72.9495 34.2767 73.0087 34.3764 73.1264 34.4761L73.3034 34.6257 73.1917 34.7659H71.7481L71.6457 34.5696 71.8506 34.364C72.6954 33.5166 73.2695 32.9308 73.5735 32.6068L72.5583 30.8498C72.5025 30.7501 72.444 30.6816 72.3815 30.6441 72.3196 30.6067 72.2484 30.5881 72.1673 30.5881 72.0555 30.5881 71.9378 30.6285 71.8134 30.7096L71.6085 30.4291C71.8759 30.1425 72.1646 29.9992 72.4746 29.9992 72.8909 29.9992 73.2229 30.2174 73.4711 30.6535L74.1974 31.9246C74.7443 31.3015 75.017 30.8965 75.017 30.7096 75.017 30.6099 74.9584 30.5102 74.84 30.4105L74.6631 30.2609 74.7749 30.1207h1.4434L76.3208 30.317 75.8273 30.8124zM80.9007 33.8031C80.9194 33.7845 80.9474 33.7751 80.9846 33.7751 81.0338 33.7751 81.0837 33.8031 81.1336 33.8593 81.1895 33.9154 81.2174 33.9745 81.2174 34.0368 81.2174 34.0742 81.2081 34.1023 81.1895 34.1209 80.972 34.3702 80.7172 34.5634 80.4258 34.7004 80.1397 34.8313 79.8358 34.8967 79.5132 34.8967 79.0847 34.8967 78.6996 34.7939 78.3583 34.5883 78.0165 34.3764 77.7497 34.0867 77.5574 33.719 77.3645 33.3453 77.2688 32.9246 77.2688 32.4574 77.2688 31.965 77.3619 31.5351 77.5481 31.1676 77.7343 30.7937 77.9951 30.507 78.3304 30.3077 78.6717 30.1021 79.0688 29.9992 79.5224 29.9992 80.0001 29.9992 80.3913 30.1176 80.6958 30.3544 81.0058 30.5849 81.1615 30.884 81.1615 31.2517 81.1615 31.5196 81.0744 31.7407 80.9007 31.9153 80.7331 32.0835 80.5157 32.1676 80.2489 32.1676 80.1305 32.1676 80.0719 32.1334 80.0719 32.0647 80.0719 32.0461 80.0932 32.0025 80.1371 31.9339 80.1804 31.8654 80.2176 31.7812 80.2489 31.6816 80.2795 31.5819 80.2954 31.4542 80.2954 31.2984 80.2954 31.0491 80.2142 30.8528 80.0533 30.7096 79.8976 30.56 79.6868 30.4852 79.42 30.4852 79.0661 30.4852 78.7801 30.6597 78.5632 31.0086 78.3456 31.3576 78.2373 31.8156 78.2373 32.3825 78.2373 32.962 78.3643 33.4232 78.6191 33.7658 78.8799 34.1023 79.2304 34.2705 79.6715 34.2705 80.1185 34.2705 80.5283 34.1147 80.9007 33.8031zM86.2724 34.0649C86.0422 34.3328 85.7694 34.5385 85.4528 34.6818 85.1361 34.825 84.7943 34.8967 84.4284 34.8967 84 34.8967 83.6241 34.797 83.3015 34.5977 82.9782 34.3983 82.7268 34.1179 82.5471 33.7565 82.3728 33.395 82.2864 32.9776 82.2864 32.5041 82.2864 32.0056 82.3855 31.5695 82.5844 31.1956 82.7827 30.8155 83.062 30.5226 83.4226 30.317 83.7884 30.1051 84.2142 29.9992 84.6984 29.9992 85.0397 29.9992 85.3284 30.0646 85.5645 30.1955 85.8067 30.3201 85.9863 30.4883 86.1047 30.7002 86.2225 30.9058 86.2816 31.1301 86.2816 31.3731 86.2816 31.6348 86.2098 31.8871 86.0675 32.1302 85.9304 32.3733 85.7289 32.5726 85.4621 32.7284 85.1947 32.8779 84.8754 32.9527 84.5029 32.9527 84.304 32.9527 84.0838 32.9152 83.8417 32.8405 83.5995 32.7658 83.4785 32.6567 83.4785 32.5134 83.4785 32.4636 83.4905 32.4168 83.5158 32.3733 83.5464 32.3296 83.5809 32.3078 83.6182 32.3078 83.6368 32.3078 83.6987 32.3296 83.8044 32.3733 83.9095 32.4106 84.0466 32.4292 84.2142 32.4292 84.5867 32.4292 84.8754 32.3234 85.0803 32.1115 85.2911 31.8997 85.3969 31.6504 85.3969 31.3638 85.3969 31.1208 85.3191 30.9121 85.1641 30.7376 85.0084 30.5569 84.7916 30.4665 84.5122 30.4665 84.1144 30.4665 83.8044 30.6441 83.5809 30.9992 83.3574 31.3482 83.2456 31.8498 83.2456 32.5041 83.2456 33.0586 83.3634 33.4947 83.5995 33.8125 83.835 34.1241 84.177 34.2799 84.6239 34.2799 85.1701 34.2799 85.6231 34.1023 85.9836 33.7471 86.0082 33.7222 86.0362 33.7098 86.0675 33.7098 86.1167 33.7098 86.1699 33.7409 86.2257 33.8031 86.2816 33.8593 86.3096 33.9185 86.3096 33.9808 86.3096 34.0119 86.297 34.04 86.2724 34.0649zM88.8268 33.9434C88.8268 34.1553 88.9199 34.2611 89.1061 34.2611 89.2611 34.2611 89.4167 34.1958 89.5717 34.0649L89.7488 34.3079C89.5871 34.4886 89.4135 34.632 89.2272 34.7378 89.0409 34.8438 88.8673 34.8967 88.7056 34.8967 88.4508 34.8967 88.268 34.8188 88.1562 34.663 88.0444 34.5073 87.9885 34.2549 87.9885 33.906V28.4664C87.9885 28.3917 87.9733 28.3387 87.942 28.3076 87.9174 28.2764 87.8708 28.2608 87.8023 28.2608H87.3926L87.3087 28.0178C87.489 27.8558 87.6939 27.7219 87.9234 27.6159 88.1529 27.51 88.3577 27.457 88.538 27.457 88.6251 27.457 88.6964 27.485 88.7523 27.5411 88.8082 27.5972 88.836 27.6688 88.836 27.7561L88.8268 33.9434zm3.0898.0C91.9166 34.1553 92.0098 34.2611 92.196 34.2611 92.351 34.2611 92.506 34.1958 92.6616 34.0649L92.8386 34.3079C92.677 34.4886 92.5033 34.632 92.3171 34.7378 92.1308 34.8438 91.9566 34.8967 91.7956 34.8967 91.5408 34.8967 91.3578 34.8188 91.246 34.663 91.1344 34.5073 91.0785 34.2549 91.0785 33.906V28.4664C91.0785 28.3917 91.0625 28.3387 91.0319 28.3076 91.0066 28.2764 90.9601 28.2608 90.8922 28.2608H90.4824L90.3986 28.0178C90.5782 27.8558 90.7831 27.7219 91.0133 27.6159 91.2428 27.51 91.4477 27.457 91.628 27.457 91.7144 27.457 91.7862 27.485 91.8421 27.5411 91.898 27.5972 91.926 27.6688 91.926 27.7561L91.9166 33.9434zM97.66 34.0649C97.4305 34.3328 97.1572 34.5385 96.8405 34.6818 96.5239 34.825 96.1826 34.8967 95.816 34.8967 95.3877 34.8967 95.0119 34.797 94.6893 34.5977 94.3666 34.3983 94.1151 34.1179 93.9349 33.7565 93.7613 33.395 93.6741 32.9776 93.6741 32.5041 93.6741 32.0056 93.7733 31.5695 93.9722 31.1956 94.171 30.8155 94.4504 30.5226 94.8103 30.317 95.1768 30.1051 95.6019 29.9992 96.0862 29.9992 96.4275 29.9992 96.7161 30.0646 96.9523 30.1955 97.1944 30.3201 97.3746 30.4883 97.4924 30.7002 97.6101 30.9058 97.6694 31.1301 97.6694 31.3731 97.6694 31.6348 97.5981 31.8871 97.4551 32.1302 97.3187 32.3733 97.1165 32.5726 96.8498 32.7284 96.583 32.8779 96.2631 32.9527 95.8905 32.9527 95.6917 32.9527 95.4715 32.9152 95.2293 32.8405 94.9872 32.7658 94.8662 32.6567 94.8662 32.5134 94.8662 32.4636 94.8788 32.4168 94.9034 32.3733 94.9347 32.3296 94.9686 32.3078 95.0058 32.3078 95.0244 32.3078 95.0863 32.3296 95.1921 32.3733 95.2979 32.4106 95.4342 32.4292 95.6019 32.4292 95.9744 32.4292 96.2631 32.3234 96.468 32.1115 96.6789 31.8997 96.7846 31.6504 96.7846 31.3638 96.7846 31.1208 96.7067 30.9121 96.5517 30.7376 96.3969 30.5569 96.1793 30.4665 95.8999 30.4665 95.5028 30.4665 95.1921 30.6441 94.9686 30.9992c-.223500000000001.349-.3352.8506-.3352 1.5049C94.6334 33.0586 94.7511 33.4947 94.9872 33.8125 95.2234 34.1241 95.5646 34.2799 96.0117 34.2799 96.5578 34.2799 97.0114 34.1023 97.3713 33.7471 97.396 33.7222 97.4238 33.7098 97.4551 33.7098 97.505 33.7098 97.5576 33.7409 97.6135 33.8031 97.6694 33.8593 97.6973 33.9185 97.6973 33.9808 97.6973 34.0119 97.6846 34.04 97.66 34.0649zM100.363 33.2704C100.363 33.5634 100.385 33.7969 100.429 33.9715 100.473 34.1459 100.55 34.3142 100.661 34.4761L100.773 34.6257 100.661 34.7659H99.0316l-.1023-.2898L99.1248 34.4294C99.2805 34.392 99.383 34.3266 99.4322 34.2331 99.4881 34.1335 99.516 33.9651 99.516 33.7284V31.1021C99.516 31.0274 99.5007 30.9744 99.4694 30.9432 99.4448 30.9121 99.3982 30.8965 99.3297 30.8965H98.92L98.8361 30.6535C99.0164 30.4915 99.2213 30.3575 99.4508 30.2516 99.687 30.1457 99.8918 30.0927 100.065 30.0927 100.153 30.0927 100.224 30.1207 100.28 30.1768S100.363 30.3045 100.363 30.3918v1.0001C100.525 30.9868 100.767 30.6535 101.09 30.3918 101.413 30.1301 101.751 29.9992 102.105 29.9992 102.54 29.9992 102.857 30.1331 103.055 30.4011 103.254 30.669 103.353 31.0959 103.353 31.6816v2.2618C103.353 34.1553 103.446 34.2611 103.632 34.2611 103.775 34.2611 103.93 34.1958 104.098 34.0649L104.275 34.3079C104.114 34.4886 103.94 34.632 103.753 34.7378 103.567 34.8438 103.393 34.8967 103.232 34.8967 102.978 34.8967 102.794 34.8188 102.682 34.663 102.571 34.5073 102.515 34.2549 102.515 33.906V31.6816C102.515 31.046 102.248 30.7282 101.714 30.7282 101.447 30.7282 101.211 30.8342 101.006 31.046 100.808 31.2579 100.649 31.5569 100.531 31.9432 100.419 32.3296 100.363 32.772 100.363 33.2704zM108.788 33.8031C108.806 33.7845 108.834 33.7751 108.871 33.7751 108.921 33.7751 108.971 33.8031 109.02 33.8593 109.076 33.9154 109.104 33.9745 109.104 34.0368 109.104 34.0742 109.095 34.1023 109.076 34.1209 108.859 34.3702 108.605 34.5634 108.313 34.7004 108.027 34.8313 107.723 34.8967 107.4 34.8967 106.972 34.8967 106.586 34.7939 106.245 34.5883 105.904 34.3764 105.637 34.0867 105.444 33.719 105.252 33.3453 105.156 32.9246 105.156 32.4574 105.156 31.965 105.249 31.5351 105.435 31.1676 105.621 30.7937 105.882 30.507 106.217 30.3077 106.558 30.1021 106.956 29.9992 107.409 29.9992 107.888 29.9992 108.279 30.1176 108.583 30.3544 108.893 30.5849 109.048 30.884 109.048 31.2517 109.048 31.5196 108.961 31.7407 108.788 31.9153 108.62 32.0835 108.402 32.1676 108.136 32.1676 108.018 32.1676 107.959 32.1334 107.959 32.0647 107.959 32.0461 107.981 32.0025 108.024 31.9339 108.067 31.8654 108.104 31.7812 108.136 31.6816 108.167 31.5819 108.182 31.4542 108.182 31.2984 108.182 31.0491 108.102 30.8528 107.94 30.7096 107.785 30.56 107.574 30.4852 107.307 30.4852 106.953 30.4852 106.668 30.6597 106.45 31.0086 106.233 31.3576 106.124 31.8156 106.124 32.3825 106.124 32.962 106.251 33.4232 106.506 33.7658 106.767 34.1023 107.117 34.2705 107.558 34.2705 108.005 34.2705 108.415 34.1147 108.788 33.8031zM114.16 34.0649C113.929 34.3328 113.656 34.5385 113.34 34.6818 113.023 34.825 112.682 34.8967 112.315 34.8967 111.887 34.8967 111.511 34.797 111.188 34.5977 110.866 34.3983 110.614 34.1179 110.434 33.7565 110.26 33.395 110.173 32.9776 110.173 32.5041 110.173 32.0056 110.272 31.5695 110.471 31.1956 110.67 30.8155 110.95 30.5226 111.309 30.317 111.676 30.1051 112.101 29.9992 112.585 29.9992 112.927 29.9992 113.215 30.0646 113.452 30.1955 113.693 30.3201 113.874 30.4883 113.991 30.7002 114.109 30.9058 114.169 31.1301 114.169 31.3731 114.169 31.6348 114.098 31.8871 113.954 32.1302 113.818 32.3733 113.615 32.5726 113.349 32.7284 113.083 32.8779 112.762 32.9527 112.39 32.9527 112.191 32.9527 111.971 32.9152 111.729 32.8405 111.486 32.7658 111.365 32.6567 111.365 32.5134 111.365 32.4636 111.378 32.4168 111.403 32.3733 111.434 32.3296 111.468 32.3078 111.505 32.3078 111.524 32.3078 111.585 32.3296 111.691 32.3733 111.797 32.4106 111.933 32.4292 112.101 32.4292 112.474 32.4292 112.762 32.3234 112.967 32.1115 113.179 31.8997 113.284 31.6504 113.284 31.3638 113.284 31.1208 113.206 30.9121 113.051 30.7376 112.896 30.5569 112.678 30.4665 112.399 30.4665 112.002 30.4665 111.691 30.6441 111.468 30.9992 111.244 31.3482 111.133 31.8498 111.133 32.5041 111.133 33.0586 111.25 33.4947 111.486 33.8125 111.723 34.1241 112.064 34.2799 112.511 34.2799 113.057 34.2799 113.51 34.1023 113.871 33.7471 113.895 33.7222 113.923 33.7098 113.954 33.7098 114.004 33.7098 114.057 33.7409 114.112 33.8031 114.169 33.8593 114.197 33.9185 114.197 33.9808 114.197 34.0119 114.183 34.04 114.16 34.0649z" fill="#fff"/><path d="M6.75881 24.3182C4.72097 24.3182 3.07939 23.7181 1.83405 22.518.611349 21.2954.0 19.6651.0 17.6273V6.62295C0 4.60776.611349 3.00013 1.83405 1.80008 3.07939.600025 4.72097.0 6.75881.0 8.81928.0 10.4608.600025 11.6835 1.80008c1.2454 1.20005 1.868 2.80768 1.868 4.82287v.37359C13.5515 7.10976 13.5062 7.21165 13.4157 7.30222 13.3477 7.37015 13.2572 7.40412 13.144 7.40412l-3.97379.16981C8.89853 7.57393 8.76268 7.4494 8.76268 7.20034V6.31727C8.76268 5.66064 8.58153 5.12854 8.21925 4.72097 7.85697 4.31341 7.37015 4.10963 6.75881 4.10963 6.1701 4.10963 5.69461 4.31341 5.33233 4.72097c-.36228.40757-.54343.93967-.54343 1.5963V18.0348c0 .656600000000001.18115 1.1888.54343 1.5963C5.69461 20.0161 6.1701 20.2084 6.75881 20.2084 7.37015 20.2084 7.85697 20.0161 8.21925 19.6311 8.58153 19.2236 8.76268 18.6914 8.76268 18.0348V17.1178C8.76268 17.0046 8.79663 16.914 8.86456 16.8461 8.95513 16.7555 9.05699 16.7103 9.17021 16.7103L13.144 16.88C13.2572 16.88 13.3477 16.9253 13.4157 17.0159 13.5062 17.0838 13.5515 17.1744 13.5515 17.2876V17.6273c0 2.0378-.6226 3.6681-1.868 4.8907-1.2453 1.2001-2.88687 1.8002-4.92469 1.8002zM20.8935 24.0125C20.7803 24.0125 20.6785 23.9785 20.5879 23.9105 20.52 23.82 20.486 23.7181 20.486 23.6049V14.7743L20.452 14.5705 15.6971.747202C15.6744.701916 15.6631.64531 15.6631.577383 15.6631.3736 15.7877.271709 16.0367.271709h4.1776C20.4633.271709 20.6218.384921 20.6898.611347L22.7955 8.7287C22.8182 8.79663 22.8521 8.8306 22.8975 8.8306 22.9428 8.8306 22.9767 8.79663 22.9993 8.7287L25.1051.611347C25.1731.384921 25.3316.271709 25.5806.271709h4.1776c.1358.0.2377.045285.305600000000002.135856C30.1317.475491 30.143.588704 30.0977.747202L25.3089 14.5705 25.2749 14.7743v8.8306C25.2749 23.7181 25.2296 23.82 25.1391 23.9105 25.0711 23.9785 24.9806 24.0125 24.8673 24.0125H20.8935zm25.6028-6.5211c0 2.1057-.634 3.7247-1.902 4.8568C43.3263 23.4804 41.6848 24.0464 39.6695 24.0464H33.2504C33.1371 24.0464 33.0353 24.0125 32.9447 23.9445 32.8768 23.854 32.8428 23.752 32.8428 23.6389V.679274C32.8428.566061 32.8768.475491 32.9447.407565 33.0353.316994 33.1371.271709 33.2504.271709h5.6719c2.2643.0 4.0305.54342 5.2983 1.630271 1.2907 1.08683 1.936 2.70578 1.936 4.85683C46.1566 9.00042 45.3868 10.6307 43.8471 11.6496 43.7565 11.7175 43.7453 11.7855 43.8131 11.8534c1.7888 1.268 2.6832 3.1473 2.6832 5.638zM37.8015 4.38133C37.6884 4.38133 37.6317 4.43794 37.6317 4.55116V9.88349C37.6317 9.9967 37.6884 10.0533 37.8015 10.0533h1.2227C39.794 10.0533 40.3941 9.81556 40.8243 9.34007 41.2545 8.84192 41.4696 8.15132 41.4696 7.26827 41.4696 6.33992 41.2545 5.62668 40.8243 5.12854 40.4168 4.63041 39.8167 4.38133 39.0242 4.38133H37.8015zM39.296 19.9028C40.0432 19.9028 40.6318 19.6311 41.062 19.0877 41.4923 18.5443 41.7073 17.7744 41.7073 16.7781 41.7073 15.7818 41.4923 14.9893 41.062 14.4007 40.6318 13.812 40.0545 13.5177 39.3299 13.5177H37.8015C37.6884 13.5177 37.6317 13.5742 37.6317 13.6875v6.0456C37.6317 19.8462 37.6884 19.9028 37.8015 19.9028H39.296zM61.8409 3.97377C61.8409 4.08698 61.7957 4.18888 61.7051 4.27944 61.6372 4.34736 61.5466 4.38133 61.4334 4.38133H54.335C54.2218 4.38133 54.1651 4.43794 54.1651 4.55116V9.91745C54.1651 10.0307 54.2218 10.0873 54.335 10.0873h4.0756C58.5238 10.0873 58.6144 10.1325 58.6823 10.2231 58.7729 10.291 58.8181 10.3816 58.8181 10.4948v3.2945C58.8181 13.9025 58.7729 14.0045 58.6823 14.095 58.6144 14.163 58.5238 14.1969 58.4106 14.1969H54.335C54.2218 14.1969 54.1651 14.2535 54.1651 14.3667v5.4002C54.1651 19.8802 54.2218 19.9368 54.335 19.9368h7.0984C61.5466 19.9368 61.6372 19.9821 61.7051 20.0726 61.7957 20.1406 61.8409 20.2311 61.8409 20.3444v3.2945C61.8409 23.752 61.7957 23.854 61.7051 23.9445 61.6372 24.0125 61.5466 24.0464 61.4334 24.0464H49.7837C49.6706 24.0464 49.5687 24.0125 49.4781 23.9445 49.4102 23.854 49.3762 23.752 49.3762 23.6389V.679274C49.3762.566061 49.4102.475491 49.4781.407565 49.5687.316994 49.6706.271709 49.7837.271709H61.4334C61.5466.271709 61.6372.316994 61.7051.407565 61.7957.475491 61.8409.566061 61.8409.679274V3.97377zM74.322 24.0464C74.0728 24.0464 73.9143 23.9332 73.8465 23.7067L71.2312 14.3328C71.1859 14.2422 71.1294 14.1969 71.0614 14.1969H69.9066C69.7934 14.1969 69.7368 14.2535 69.7368 14.3667v9.2722C69.7368 23.752 69.6915 23.854 69.6009 23.9445 69.533 24.0125 69.4424 24.0464 69.3292 24.0464H65.3555C65.2423 24.0464 65.1403 24.0125 65.0498 23.9445 64.9818 23.854 64.9478 23.752 64.9478 23.6389V.679274C64.9478.566061 64.9818.475491 65.0498.407565 65.1403.316994 65.2423.271709 65.3555.271709H72.2162c1.2453.0 2.3548.305674 3.3284.917031C76.5183 1.77743 77.2655 2.61522 77.7863 3.70205 78.3296 4.7889 78.6014 6.03424 78.6014 7.43808 78.6014 8.774 78.341 9.95142 77.8201 10.9703 77.3221 11.9892 76.6201 12.7817 75.7145 13.3478 75.6692 13.3705 75.6352 13.4044 75.6125 13.4497 75.59 13.4723 75.59 13.5063 75.6125 13.5515l3.1247 10.0194L78.7711 23.7067C78.7711 23.9332 78.6466 24.0464 78.3976 24.0464H74.322zM69.9066 4.38133C69.7934 4.38133 69.7368 4.43794 69.7368 4.55116V10.359C69.7368 10.4722 69.7934 10.5288 69.9066 10.5288H71.435C72.1369 10.5288 72.703 10.2571 73.1332 9.71366 73.586 9.1476 73.8125 8.40039 73.8125 7.47205 73.8125 6.52106 73.586 5.77386 73.1332 5.23043 72.703 4.66437 72.1369 4.38133 71.435 4.38133H69.9066zM85.7269 24.0464C85.4778 24.0464 85.3306 23.9219 85.2853 23.6728L80.7002.713238 80.6663.577383C80.6663.3736 80.7908.271709 81.0398.271709H85.1834C85.4551.271709 85.6024.396244 85.625.64531L87.5609 12.8723C87.5836 12.9629 87.6176 13.0082 87.6629 13.0082 87.7081 13.0082 87.7421 12.9629 87.7647 12.8723L89.5987.64531C89.6214.396244 89.7686.271709 90.0403.271709H93.4707C93.7423.271709 93.8895.396244 93.9121.64531L95.9159 12.8723C95.9386 12.9629 95.9725 13.0082 96.0179 13.0082 96.0632 13.0082 96.0971 12.9629 96.1197 12.8723L97.8519.64531C97.8745.396244 98.0217.271709 98.2934.271709h4.0076C102.596.271709 102.72.418885 102.675.713238L98.3613 23.6728C98.3387 23.9219 98.1915 24.0464 97.9198 24.0464H94.2517C93.98 24.0464 93.833 23.9219 93.8103 23.6728L91.8064 11.1062C91.7838 11.0156 91.7498 10.9703 91.7045 10.9703S91.6253 11.0156 91.6027 11.1062L89.8025 23.6728C89.7799 23.9219 89.6327 24.0464 89.361 24.0464H85.7269zm20.2571.0C105.871 24.0464 105.769 24.0125 105.679 23.9445 105.611 23.854 105.577 23.752 105.577 23.6389V.679274C105.577.566061 105.611.475491 105.679.407565 105.769.316994 105.871.271709 105.984.271709h3.974C110.071.271709 110.162.316994 110.23.407565 110.32.475491 110.366.566061 110.366.679274V23.6389C110.366 23.752 110.32 23.854 110.23 23.9445 110.162 24.0125 110.071 24.0464 109.958 24.0464h-3.974zM120.197 24.3182c-1.313.0-2.468-.2605-3.465-.781200000000002C115.737 23.0162 114.967 22.2916 114.424 21.3632 113.88 20.4123 113.609 19.3254 113.609 18.1028V17.1178C113.609 17.0046 113.643 16.914 113.71 16.8461 113.801 16.7555 113.902 16.7103 114.016 16.7103h3.905C118.035 16.7103 118.126 16.7555 118.193 16.8461 118.284 16.914 118.329 17.0046 118.329 17.1178V17.865C118.329 18.5669 118.51 19.1329 118.873 19.5632 119.235 19.9934 119.688 20.2084 120.231 20.2084 120.775 20.2084 121.228 20.0047 121.59 19.5971 121.953 19.1896 122.133 18.6575 122.133 18.0008 122.133 17.3216 121.906 16.7442 121.454 16.2687 121.001 15.7705 120.118 15.046 118.805 14.095 117.673 13.2799 116.756 12.5553 116.054 11.9213 115.352 11.2874 114.751 10.5062 114.253 9.57781 113.755 8.64945 113.506 7.57393 113.506 6.35123c0-1.92462.600999999999999-3.4643 1.801-4.61908C116.507.577383 118.092.0 120.062.0 122.054.0 123.65.600025 124.851 1.80008 126.073 3.00013 126.684 4.57379 126.684 6.52106v.81513C126.684 7.4494 126.639 7.5513 126.548 7.64186 126.481 7.70979 126.39 7.74375 126.276 7.74375h-3.905C122.257 7.74375 122.156 7.70979 122.065 7.64186 121.998 7.5513 121.964 7.4494 121.964 7.33619V6.41917C121.964 5.71724 121.782 5.1625 121.42 4.75494 121.08 4.32473 120.627 4.10963 120.062 4.10963 119.517 4.10963 119.076 4.31341 118.736 4.72097 118.398 5.1059 118.227 5.64931 118.227 6.35123 118.227 7.03051 118.443 7.63055 118.873 8.15132 119.303 8.6721 120.152 9.39667 121.42 10.325c1.404 1.0416 2.456 1.8907 3.158 2.5473.724999999999994.634 1.279 1.3472 1.664 2.1397C126.65 15.7818 126.854 16.7103 126.854 17.7971 126.854 19.7896 126.242 21.3746 125.02 22.552 123.797 23.7294 122.19 24.3182 120.197 24.3182zm15.771.0C134.654 24.3182 133.5 24.0577 132.503 23.537 131.508 23.0162 130.738 22.2916 130.194 21.3632 129.651 20.4123 129.379 19.3254 129.379 18.1028V17.1178C129.379 17.0046 129.412 16.914 129.48 16.8461 129.572 16.7555 129.673 16.7103 129.786 16.7103H133.692C133.805 16.7103 133.897 16.7555 133.964 16.8461 134.055 16.914 134.1 17.0046 134.1 17.1178V17.865C134.1 18.5669 134.282 19.1329 134.643 19.5632 135.005 19.9934 135.458 20.2084 136.002 20.2084 136.545 20.2084 136.998 20.0047 137.36 19.5971 137.722 19.1896 137.904 18.6575 137.904 18.0008 137.904 17.3216 137.677 16.7442 137.225 16.2687 136.772 15.7705 135.889 15.046 134.575 14.095 133.443 13.2799 132.526 12.5553 131.824 11.9213 131.123 11.2874 130.522 10.5062 130.024 9.57781 129.526 8.64945 129.277 7.57393 129.277 6.35123 129.277 4.42661 129.876 2.88693 131.077 1.73215 132.277.577383 133.862.0 135.832.0 137.824.0 139.42.600025 140.62 1.80008 141.843 3.00013 142.455 4.57379 142.455 6.52106v.81513C142.455 7.4494 142.41 7.5513 142.319 7.64186 142.252 7.70979 142.16 7.74375 142.047 7.74375H138.141C138.028 7.74375 137.927 7.70979 137.835 7.64186 137.768 7.5513 137.734 7.4494 137.734 7.33619V6.41917C137.734 5.71724 137.553 5.1625 137.191 4.75494 136.851 4.32473 136.398 4.10963 135.832 4.10963 135.288 4.10963 134.847 4.31341 134.507 4.72097 134.167 5.1059 133.998 5.64931 133.998 6.35123 133.998 7.03051 134.213 7.63055 134.643 8.15132 135.073 8.6721 135.923 9.39667 137.191 10.325 138.594 11.3666 139.647 12.2157 140.349 12.8723 141.074 13.5063 141.629 14.2195 142.013 15.012 142.421 15.7818 142.624 16.7103 142.624 17.7971c0 1.9925-.61099999999999 3.5775-1.833 4.7549C139.568 23.7294 137.961 24.3182 135.968 24.3182zM157.991 3.97377c0 .11321-.0460000000000207.21511-.137.30567C157.787 4.34736 157.696 4.38133 157.582 4.38133H150.485C150.371 4.38133 150.314 4.43794 150.314 4.55116V9.91745C150.314 10.0307 150.371 10.0873 150.485 10.0873H154.56C154.673 10.0873 154.764 10.1325 154.832 10.2231 154.923 10.291 154.968 10.3816 154.968 10.4948v3.2945C154.968 13.9025 154.923 14.0045 154.832 14.095 154.764 14.163 154.673 14.1969 154.56 14.1969H150.485C150.371 14.1969 150.314 14.2535 150.314 14.3667v5.4002C150.314 19.8802 150.371 19.9368 150.485 19.9368H157.582C157.696 19.9368 157.787 19.9821 157.854 20.0726 157.945 20.1406 157.991 20.2311 157.991 20.3444v3.2945C157.991 23.752 157.945 23.854 157.854 23.9445 157.787 24.0125 157.696 24.0464 157.582 24.0464H145.933C145.82 24.0464 145.719 24.0125 145.627 23.9445 145.559 23.854 145.526 23.752 145.526 23.6389V.679274C145.526.566061 145.559.475491 145.627.407565 145.719.316994 145.82.271709 145.933.271709h11.649C157.696.271709 157.787.316994 157.854.407565 157.945.475491 157.991.566061 157.991.679274V3.97377zM170.811.679274C170.811.566061 170.845.475491 170.913.407565 171.003.316994 171.106.271709 171.219.271709h3.94C175.271.271709 175.362.316994 175.43.407565 175.521.475491 175.566.566061 175.566.679274V23.6389C175.566 23.752 175.521 23.854 175.43 23.9445 175.362 24.0125 175.271 24.0464 175.159 24.0464h-4.483C170.449 24.0464 170.302 23.9332 170.233 23.7067L166.022 10.5628C166 10.4948 165.954 10.4722 165.886 10.4948 165.84 10.4948 165.818 10.5288 165.818 10.5967L165.852 23.6389C165.852 23.752 165.807 23.854 165.716 23.9445 165.649 24.0125 165.558 24.0464 165.444 24.0464H161.505C161.391 24.0464 161.29 24.0125 161.199 23.9445 161.132 23.854 161.097 23.752 161.097 23.6389V.679274C161.097.566061 161.132.475491 161.199.407565 161.29.316994 161.391.271709 161.505.271709H165.954C166.18.271709 166.328.384921 166.396.611347L170.641 13.7553C170.663 13.8233 170.698 13.8573 170.743 13.8573 170.811 13.8346 170.845 13.7893 170.845 13.7214L170.811.679274z" fill="url(#paint0_linear_837_9928)"/><defs><linearGradient id="paint0_linear_837_9928" x1="175.566" y1="21.2711" x2="79.6817" y2=".517553e-5" gradientUnits="userSpaceOnUse"><stop stop-color="#744eff"/><stop offset="1" stop-color="#0b89c8"/></linearGradient></defs></svg>